<svg width="61" height="58" viewBox="0 0 61 58" fill="none" xmlns="http://www.w3.org/2000/svg">
<path d="M53.3279 57.381C57.0935 57.381 60.1608 54.3138 60.1608 50.5409C60.1608 46.7608 57.1007 43.7007 53.3279 43.7007C49.5694 43.7007 46.5093 46.7608 46.5093 50.5409C46.5093 54.3138 49.5694 57.381 53.3279 57.381Z" fill="white"/>
<path d="M32.6456 27.7207L30.9176 26.7559L32.4224 25.4743C34.1793 23.9622 37.1098 20.5853 37.1098 14.7244C37.1098 5.77455 30.1688 0 19.4261 0H7.16419H5.76735C2.57767 0.115203 0.0360009 2.70007 0 5.91135V56.7087H19.6709C31.616 56.7087 39.3274 50.2069 39.3274 40.141C39.3274 34.7121 36.829 30.0824 32.6456 27.7207ZM10.9155 13.3347C10.9155 10.7067 12.0315 9.45384 14.4724 9.29544H19.3541C23.5374 9.29544 26.0503 11.8011 26.0503 15.9988C26.0503 19.1957 24.3294 22.9182 19.5053 22.9182H10.9155V13.3347ZM20.4557 47.1108L10.9155 47.1036V35.6913C10.9155 33.2505 11.8659 31.9832 13.954 31.6952H20.4557C25.0999 31.6952 28.1095 34.6185 28.1095 39.3634C28.1095 44.2307 25.1791 47.1108 20.4557 47.1108Z" fill="white"/>
</svg>
